Coordinates
version=1
nRows=13
nColumns=36
inDegrees=yes

Units are S.I. units (second, meters, Newtons, ...)
If the header above contains a line with 'inDegrees', this indicates whether rotational values are in degrees (yes) or radians (no).

endheader
time	pelvis_tilt	pelvis_list	pelvis_rotation	pelvis_tx	pelvis_ty	pelvis_tz	hip_flexion_r	hip_adduction_r	hip_rotation_r	knee_angle_r	knee_angle_r_beta	ankle_angle_r	subtalar_angle_r	mtp_angle_r	hip_flexion_l	hip_adduction_l	hip_rotation_l	knee_angle_l	knee_angle_l_beta	ankle_angle_l	subtalar_angle_l	mtp_angle_l	lumbar_extension	lumbar_bending	lumbar_rotation	arm_flex_r	arm_add_r	arm_rot_r	elbow_flex_r	pro_sup_r	arm_flex_l	arm_add_l	arm_rot_l	elbow_flex_l	pro_sup_l
      0.00000000	    -28.61707555	     -1.12947724	     -2.67000898	     -0.82722008	      1.17082933	     -0.03060032	     40.48706410	      1.61998092	     -0.97066219	     30.94089188	      0.54002044	     12.99331806	    -14.47454093	     -5.92739694	     40.17488826	     -8.45977239	     -4.21070945	     28.85058720	      0.50353774	      6.72445910	    -14.39007301	     -5.92739694	    -18.96279314	      1.79480563	      2.44465637	      1.61776514	    -14.66311595	     11.79107017	     33.56467865	     76.60168374	      0.10480862	    -12.13071435	     22.92056237	     27.67595139	     63.28246102
      0.00416670	    -30.63776809	      1.36977216	     -2.00230242	     -0.82641381	      1.16815332	     -0.03064809	     42.66416722	      0.02799025	      0.25391489	     30.86203883	      0.53864419	     18.85373728	     -6.39857921	     -6.05863095	     42.16517191	     -5.29061089	     -4.01373269	     29.51208225	      0.51508300	     12.90538385	     -6.14549154	     -6.05863095	    -16.91456036	     -0.75386479	      0.64394085	      3.14316409	    -11.91899828	     14.47449450	     25.42977401	     76.09764048	      1.33169444	    -11.84899262	     23.31635473	     22.73427204	     63.36098095
      0.00833330	    -31.24315863	      2.23660922	     -2.49149358	     -0.82592810	      1.16752725	     -0.02933516	     43.32475013	     -0.36888727	      0.66318782	     30.98480184	      0.54078681	     19.74128855	     -6.27045466	     -6.21380420	     42.64089378	     -5.05869477	     -4.48374184	     29.66560763	      0.51776253	     14.48803079	     -4.90766957	     -6.21380420	    -16.01007476	     -2.05337508	      0.42005907	      3.78865687	    -13.03394545	     21.30075547	     24.29739808	     75.78024233	      1.47302272	    -13.07393534	     28.23491609	     23.40223933	     64.34277432
      0.01250000	    -31.16221087	      2.26803990	     -2.77171922	     -0.82469094	      1.16810307	     -0.02923638	     43.43233083	     -0.41174348	      0.54749155	     31.65285040	      0.55244646	     20.83691282	     -4.48612597	     -6.27836703	     42.14380297	     -4.92047137	     -4.06068213	     29.05712548	      0.50714251	     14.81351701	     -5.34005325	     -6.27836703	    -16.31208632	     -2.08253652	      0.73926458	      3.92943491	    -13.76807945	     22.97862263	     24.71235126	     74.89418360	      2.18446388	    -13.16215780	     29.25524951	     23.78984865	     64.24339343
      0.01666670	    -30.94640307	      2.01468923	     -3.04643994	     -0.82455169	      1.16818219	     -0.02864760	     43.39080253	     -0.07930164	      0.35597949	     32.36021890	      0.56479237	     21.22793695	     -4.12069511	     -6.33995803	     42.15376428	     -5.38822816	     -4.36720710	     29.66877190	      0.51781775	     15.77151715	     -4.47989988	     -6.33995803	    -16.71910504	     -1.53884836	      1.05827242	      4.58019403	    -14.10692113	     24.31404418	     24.59603487	     74.10957119	      2.96699700	    -13.28200282	     30.31334498	     24.86645430	     64.32562929
      0.02083330	    -31.01856650	      1.95862386	     -3.19505432	     -0.82445496	      1.16763531	     -0.02892153	     43.98199024	      0.07027700	      0.28996993	     33.14467311	      0.57848368	     21.26737602	     -4.08362960	     -6.37211551	     42.54500492	     -5.59397261	     -4.41195017	     30.29834429	      0.52880587	     15.98184701	     -4.60594004	     -6.37211551	    -16.99775803	     -1.26016753	      1.11639405	      5.08589031	    -14.16898028	     24.31572102	     25.35012455	     73.35522543	      3.26769948	    -13.24978779	     30.30077197	     25.72645364	     64.09868908
      0.02500000	    -30.54374296	      1.72088445	     -3.15343376	     -0.82441199	      1.16845145	     -0.02845040	     43.47065305	      0.14540803	     -0.05387476	     33.42299823	      0.58334136	     21.33910990	     -3.53879460	     -6.42295935	     42.26515244	     -5.85329565	     -4.52059560	     30.90244840	      0.53934947	     16.07860591	     -3.60288794	     -6.42295935	    -18.25317673	     -0.90213604	      1.43733021	      6.48193210	    -14.64082688	     24.80253020	     25.52955079	     72.84933541	      4.06261558	    -13.24393070	     30.56919416	     26.86778121	     64.19756092
      0.02916670	    -30.28917243	      1.67262611	     -3.11082432	     -0.82402730	      1.16848419	     -0.02889096	     43.61136185	     -0.10337158	     -0.46756079	     34.22842041	      0.59739863	     21.24092723	     -3.89375814	     -6.60583417	     42.37550061	     -5.91061253	     -4.74652183	     31.37117850	      0.54753035	     15.69953119	     -3.59217777	     -6.60583417	    -19.21504323	     -0.79388110	      1.29666192	      8.04992438	    -14.95706411	     26.75876678	     25.41106335	     72.89410554	      4.47168517	    -13.37330627	     29.39167111	     28.15419304	     65.76991368
      0.03333330	    -30.44910551	      1.60538971	     -3.01439698	     -0.82490451	      1.16070182	     -0.02837352	     44.28552465	     -0.16995813	     -0.78975067	     35.31817228	      0.61641839	     21.95270148	     -3.78217272	     -6.62138716	     43.24760715	     -6.01725401	     -4.80053600	     32.57132962	      0.56847694	     15.75926729	     -3.30796117	     -6.62138716	    -19.41220415	     -0.64174504	      1.50179667	      7.69913065	    -15.53333031	     25.96362263	     27.74780165	     72.23340484	      4.35835764	    -13.74431260	     28.44762638	     30.76723376	     65.52132809
      0.03750000	    -30.30809340	      1.42150656	     -2.96234576	     -0.82436632	      1.16453982	     -0.02902976	     44.30525303	     -0.14165057	     -1.14290895	     35.72072012	      0.62344418	     22.16953350	     -3.79527553	     -6.62547362	     43.45068088	     -6.23240399	     -4.98998601	     32.96345086	      0.57532075	     15.24449138	     -2.98296894	     -6.62547362	    -19.92728317	     -0.42554991	      1.83128108	      8.49436904	    -15.48951561	     25.82086044	     27.57797658	     72.22843141	      5.25379854	    -13.65228271	     28.14215366	     30.93783767	     65.55934517
      0.04166670	    -29.68954076	      1.22558178	     -2.81613424	     -0.81932286	      1.16147843	     -0.03338717	     43.34425925	     -0.35965517	     -1.77563206	     35.63573569	      0.62196092	     22.97520053	     -2.77648936	     -6.60332581	     42.79310854	     -6.28402958	     -5.22192954	     32.88576347	      0.57396485	     15.90506241	     -2.40619589	     -6.60332581	    -20.72301345	     -0.02757422	      2.50244353	      8.82795234	    -15.68120323	     25.17305447	     27.53697918	     71.81655248	      5.59327835	    -13.11736037	     26.35093062	     32.23109635	     65.64517206
      0.04583330	    -29.04882178	      0.99089308	     -2.66095345	     -0.81300412	      1.16224468	     -0.03007660	     42.20361864	     -0.41385822	     -2.30622399	     35.69263281	      0.62295396	     23.38511073	     -3.05700186	     -6.93883581	     42.17311415	     -6.45057945	     -5.23940231	     33.56190119	      0.58576568	     16.60400928	     -1.60138504	     -6.93883581	    -21.55144658	      0.21428930	      2.14662136	     10.06100017	    -15.41920603	     25.62689144	     27.84224816	     74.93124570	      4.92706162	    -12.48675178	     19.86488619	     33.52267548	     73.95516477
      0.05000000	    -29.11406275	      1.00583142	     -2.39117830	     -0.81401612	      1.16108770	     -0.02980556	     42.44531708	     -0.38533242	     -2.04730475	     35.91904402	      0.62690558	     23.97059341	     -3.08988520	     -6.95012182	     42.57243565	     -6.35907172	     -5.09380737	     34.50395938	      0.60220770	     16.83161141	     -1.68843368	     -6.95012182	    -21.51592654	      0.24849744	      2.41341090	     10.47519849	    -15.19288431	     25.54289385	     28.65104209	     74.25788275	      5.26346765	    -12.75342674	     19.60710207	     34.57374570	     73.29313526
